<svg xmlns="http://www.w3.org/2000/svg" xmlns:xlink="http://www.w3.org/1999/xlink" version="1.1" width="940" height="788" viewBox="0 0 940 788" xml:space="preserve">
<desc>Created with Fabric.js 3.5.0</desc>
<defs>
</defs>
<rect x="0" y="0" width="100%" height="100%" fill="#ffffff"/>
<g transform="matrix(1.8691 0 0 1.8691 470.0069 394.0049)" id="908418">
<path style="stroke: none; stroke-width: 1; stroke-dasharray: none; stroke-linecap: butt; stroke-dashoffset: 0; stroke-linejoin: miter; stroke-miterlimit: 4; is-custom-font: none; font-file-url: none; fill: rgb(0,0,0); fill-rule: nonzero; opacity: 1;" vector-effect="non-scaling-stroke" transform=" translate(-256, -256.111)" d="M 377.8 100.1 C 332.9 86.8 318.8 112 256 112 s -76.9 -25.3 -121.8 -11.9 c -44.9 13.3 -67.3 60.4 -88.5 148.8 c -21.2 88.5 -17.3 152.4 7.7 164.3 c 25 11.9 53.2 -15.4 80.1 -49.1 C 155.3 337.7 166.2 336 256 336 c 89.7 0 99 0.7 122.5 28.1 c 26.9 33.7 55.1 61 80.1 49.1 c 25 -11.9 28.9 -75.8 7.7 -164.3 C 445.1 160.5 422.6 113.5 377.8 100.1 z M 128.2 263.7 c -21.7 0 -39.3 -17.7 -39.3 -39.6 c 0 -21.8 17.6 -39.6 39.3 -39.6 c 21.7 0 39.3 17.8 39.3 39.6 S 149.9 263.7 128.2 263.7 z M 309.7 243.6 c -10.6 0 -19.3 -8.7 -19.3 -19.4 c 0 -10.7 8.7 -19.4 19.3 -19.4 c 10.7 0 19.4 8.7 19.4 19.4 C 329 234.9 320.4 243.6 309.7 243.6 z M 351.9 286 c -10.6 0 -19.3 -8.7 -19.3 -19.4 c 0 -10.8 8.7 -19.4 19.3 -19.4 c 10.7 0 19.4 8.7 19.4 19.4 C 371.3 277.4 362.6 286 351.9 286 z M 351.9 201.1 c -10.6 0 -19.3 -8.7 -19.3 -19.4 c 0 -10.7 8.7 -19.4 19.3 -19.4 c 10.7 0 19.4 8.7 19.4 19.4 C 371.3 192.4 362.6 201.1 351.9 201.1 z M 394.2 243.6 c -10.7 0 -19.3 -8.7 -19.3 -19.4 c 0 -10.7 8.7 -19.4 19.3 -19.4 c 10.6 0 19.3 8.7 19.3 19.4 C 413.5 234.9 404.9 243.6 394.2 243.6 z" stroke-linecap="round"/>
</g>
</svg>